<svg class="border shadow-md" viewBox="0 0 1322.64 743.985" style="width: 1322.64px; height: 743.985px;" xmlns="http://www.w3.org/2000/svg" preserveAspectRatio="none"><rect class="bg" id="bg" x="0" y="0" width="1322.64" height="743.985" fill="#ffffff"/><g transform="rotate(0 661.32 371.9925)"><path d="M -304.53 -76.28 S -162.26 -129.43&#10;            0.00 -76.28 142.26 -176.28&#10;            304.53 -76.28 446.79 -129.43&#10;            609.06 -76.28 723.58 -129.43&#10;            913.58 -76.28 933.11 -129.43&#10;            1218.11 -76.28 1220.64 -129.43&#10;            1522.64 -76.28 1664.90 -144.28&#10;            1827.17 -76.28 h 110 V 943.985 H -304.53 Z" fill="#1BA4FF" id="-1"/><path d="M -304.53 30.00 S -162.26 -46.00&#10;            0.00 30.00 142.26 -23.14&#10;            304.53 30.00 446.79 -23.14&#10;            609.06 30.00 751.32 -23.14&#10;            913.58 30.00 1055.85 -23.14&#10;            1218.11 30.00 1360.38 -23.14&#10;            1522.64 30.00 1520.17 -23.14&#10;            1827.17 30.00 h 110 V 943.985 H -304.53 Z" fill="#1d92ee" id="0"/><path id="1" d="M -304.53 136.28 S -162.26 83.14&#10;            0.00 136.28 142.26 42.28&#10;            304.53 136.28 318.06 83.14&#10;            609.06 136.28 751.32 56.28&#10;            913.58 136.28 959.11 83.14&#10;            1218.11 136.28 1360.38 49.28&#10;            1522.64 136.28 1664.17 83.14&#10;            1827.17 136.28 h 110 V 943.985 H -304.53 Z" fill="#1f80dd"/><path id="2" d="M -304.53 242.57 S -257.00 189.43&#10;            0.00 242.57 142.26 152.57&#10;            304.53 242.57 443.06 189.43&#10;            609.06 242.57 649.58 189.43&#10;            913.58 242.57 1042.11 140.57&#10;            1218.11 242.57 1360.38 153.57&#10;            1522.64 242.57 1664.90 167.57&#10;            1827.17 242.57 h 110 V 943.985 H -304.53 Z" fill="#216ecc"/><path id="3" d="M -304.53 348.85 S -162.26 295.71&#10;            0.00 348.85 142.26 276.85&#10;            304.53 348.85 446.79 281.85&#10;            609.06 348.85 659.58 295.71&#10;            913.58 348.85 1055.85 295.71&#10;            1218.11 348.85 1261.64 255.85&#10;            1522.64 348.85 1664.90 295.71&#10;            1827.17 348.85 h 110 V 943.985 H -304.53 Z" fill="#235cbb"/><path id="4" d="M -304.53 455.13 S -309.00 401.99&#10;            0.00 455.13 99.53 401.99&#10;            304.53 455.13 360.06 366.13&#10;            609.06 455.13 751.32 401.13&#10;            913.58 455.13 1010.11 401.99&#10;            1218.11 455.13 1360.38 378.13&#10;            1522.64 455.13 1664.90 398.13&#10;            1827.17 455.13 h 110 V 943.985 H -304.53 Z" fill="#254aaa"/><path id="5" d="M -304.53 561.42 S -162.26 484.42&#10;            0.00 561.42 142.26 508.28&#10;            304.53 561.42 446.79 507.42&#10;            609.06 561.42 730.58 508.28&#10;            913.58 561.42 1055.85 458.42&#10;            1218.11 561.42 1360.38 474.42&#10;            1522.64 561.42 1619.17 494.42&#10;            1827.17 561.42 h 110 V 943.985 H -304.53 Z" fill="#273899"/><path id="6" d="M -304.53 667.70 S -162.26 570.70&#10;            0.00 667.70 142.26 614.56&#10;            304.53 667.70 395.06 614.56&#10;            609.06 667.70 751.32 614.56&#10;            913.58 667.70 1031.11 571.70&#10;            1218.11 667.70 1360.38 571.70&#10;            1522.64 667.70 1664.90 614.56&#10;            1827.17 667.70 h 110 V 943.985 H -304.53 Z" fill="#292688"/></g></svg>